# xmcd
#
# Track frame offsets:
#	150
#	14841
#	25770
#	39577
#	58250
#	72418
#	89045
#	100983
#	115758
#	131225
#	145854
#	162798
#	176456
#
# Disc length: 2533 seconds
#
# Revision: 1
# Processed by: cddbd v1.5.2PL0 Copyright (c) Steve Scherf et al.
# Submitted via: EasyCDDAExtractor 5.0.7
#
DISCID=bc09e30d
DTITLE=Harry Shearer - Songs Pointed And Pointless
DYEAR=2007
DGENRE=Comedy
TTITLE0=Addicted to Oil
TTITLE1=Corn Wine
TTITLE2=Waterboardin', USA
TTITLE3=Connect the Dots
TTITLE4=Sugar Daddy
TTITLE5=Crossing Fingers
TTITLE6=All Backed Up
TTITLE7=Let the Flag Burners Fry (On the Fourth of July)
TTITLE8=The Losin' Kind
TTITLE9=American Guys on Mars
TTITLE10=Make New Orleans Whole
TTITLE11=New York Is My Lady
TTITLE12=Naver Sayin Neverland Again
EXTD=
EXTT0=
EXTT1=
EXTT2=
EXTT3=
EXTT4=
EXTT5=
EXTT6=
EXTT7=
EXTT8=
EXTT9=
EXTT10=
EXTT11=
EXTT12=
PLAYORDER=
